<?xml version="1.0" standalone="no"?>
<!DOCTYPE svg PUBLIC "-//W3C//DTD SVG 20010904//EN"
 "http://www.w3.org/TR/2001/REC-SVG-20010904/DTD/svg10.dtd">
<svg version="1.0" xmlns="http://www.w3.org/2000/svg"
 width="830.000000pt" height="512.000000pt" viewBox="0 0 830.000000 512.000000"
 preserveAspectRatio="xMidYMid meet">

<g transform="translate(0.000000,512.000000) scale(0.100000,-0.100000)"
fill="#000000" stroke="none">
<path d="M4185 4414 c-446 -46 -849 -243 -1166 -570 -186 -193 -315 -397 -410
-652 -37 -98 -38 -104 -24 -133 l16 -30 58 118 c110 223 223 384 385 548 245
246 504 394 831 475 345 84 749 79 1004 -14 24 -9 47 -14 51 -11 5 3 10 0 12
-6 6 -17 109 -19 133 -3 22 16 9 19 -15 4 -10 -6 -22 -4 -38 6 -18 12 -26 13
-38 3 -8 -6 -14 -7 -14 -1 0 22 26 32 46 17 24 -18 31 -19 31 0 0 8 -9 15 -19
15 -11 0 -16 5 -13 11 4 6 19 9 33 8 15 -2 36 3 47 10 15 9 16 11 3 7 -18 -5
-25 8 -10 18 16 10 51 -6 45 -20 -3 -8 0 -14 6 -14 6 0 11 5 11 10 0 6 7 10
15 10 18 0 20 -16 3 -24 -7 -3 0 -4 15 -2 31 4 25 -9 -8 -17 -15 -4 -14 -5 5
-4 14 1 32 -3 40 -8 13 -8 13 -7 1 8 -15 19 -1 23 17 5 6 -6 14 -9 18 -6 12
13 -174 102 -309 149 -196 67 -330 90 -547 94 -96 2 -193 1 -215 -1z m860
-143 c3 -6 -5 -15 -17 -21 -21 -10 -22 -10 -5 3 14 11 15 16 5 20 -9 4 -9 6
-1 6 6 1 14 -3 18 -8z m28 -16 c-3 -9 -8 -14 -10 -11 -3 3 -2 9 2 15 9 16 15
13 8 -4z"/>
<path d="M5116 4163 c-6 -14 -5 -15 5 -6 7 7 10 15 7 18 -3 3 -9 -2 -12 -12z"/>
<path d="M5090 4120 c-13 -8 -12 -10 3 -10 9 0 17 5 17 10 0 12 -1 12 -20 0z"/>
<path d="M5020 4111 c0 -6 7 -11 15 -11 9 0 28 -8 43 -17 l27 -17 -21 21 c-25
25 -64 39 -64 24z"/>
<path d="M5383 4095 c0 -7 6 -11 14 -8 7 3 13 6 13 8 0 2 -6 5 -13 8 -8 3 -14
-1 -14 -8z"/>
<path d="M5130 4070 c-24 -8 -24 -8 -2 -9 12 -1 22 -6 22 -12 0 -5 5 -7 10 -4
6 3 10 1 10 -5 0 -6 5 -8 11 -4 8 4 4 11 -10 18 -12 7 -18 15 -15 19 8 8 8 8
-26 -3z"/>
<path d="M4115 3715 c-10 -13 -23 -21 -27 -19 -4 3 -16 -9 -26 -25 -10 -17
-22 -28 -27 -23 -4 4 -5 -4 -2 -18 3 -14 9 -55 13 -92 4 -38 11 -68 15 -68 15
0 60 76 75 126 15 50 19 130 7 137 -5 3 -17 -6 -28 -18z"/>
<path d="M3965 3588 c-8 -18 -13 -25 -11 -16 3 10 1 20 -4 23 -16 10 -3 -43
19 -79 13 -20 25 -36 27 -36 3 0 3 4 0 8 -3 5 -6 37 -7 70 -1 34 -4 62 -5 62
-2 0 -11 -15 -19 -32z"/>
<path d="M3886 3486 c3 -8 17 -16 32 -19 l27 -5 -24 19 c-27 22 -43 25 -35 5z"/>
<path d="M4185 3460 c-8 -13 5 -13 25 0 13 8 13 10 -2 10 -9 0 -20 -4 -23 -10z"/>
<path d="M4143 3445 c-3 -9 -3 -19 1 -22 3 -4 6 1 6 11 0 10 5 14 12 10 7 -4
8 -3 4 4 -10 16 -15 15 -23 -3z"/>
<path d="M3818 3436 c-10 -7 -15 -16 -11 -19 3 -4 -4 -7 -16 -7 -12 0 -19 -4
-16 -10 3 -5 0 -10 -7 -11 -33 -1 32 -18 75 -18 51 -1 111 23 105 41 -5 13
-63 36 -93 37 -11 0 -28 -6 -37 -13z"/>
<path d="M4070 3410 c-8 -5 -12 -11 -10 -14 3 -2 14 2 24 10 22 15 10 19 -14
4z"/>
<path d="M4098 3403 c-9 -2 -19 -11 -22 -19 -4 -12 -2 -12 14 -4 15 8 40 33
28 29 -2 -1 -10 -3 -20 -6z"/>
<path d="M5261 3314 c-82 -22 -169 -73 -230 -134 l-54 -55 -1 -126 -1 -127 59
-6 c33 -3 84 -17 114 -31 64 -30 62 -29 62 -9 0 36 57 128 110 177 49 46 171
117 200 117 14 0 58 -70 71 -111 17 -58 12 -171 -11 -231 -26 -70 -76 -140
-129 -181 l-42 -32 30 -25 c48 -41 60 -82 62 -208 1 -39 6 -72 11 -72 18 0
173 41 251 66 67 22 83 32 109 68 78 107 118 227 118 352 0 92 -16 158 -60
251 -43 93 -167 215 -270 265 -132 65 -279 84 -399 52z"/>
<path d="M3960 3300 c-6 -11 -8 -20 -6 -20 3 0 10 9 16 20 6 11 8 20 6 20 -3
0 -10 -9 -16 -20z"/>
<path d="M3158 3154 c-147 -35 -221 -115 -196 -212 l10 -40 51 0 c127 1 188
-15 298 -76 57 -32 118 -70 134 -86 17 -15 42 -30 56 -33 28 -7 349 -224 377
-255 9 -10 37 -25 61 -31 42 -12 179 -84 265 -138 25 -16 59 -27 95 -30 l57
-5 13 43 c18 61 93 217 125 258 14 19 26 39 26 44 0 5 -14 37 -31 71 -134 263
-441 432 -892 491 -145 19 -371 18 -449 -1z"/>
<path d="M2664 2828 c1 -20 -2 -34 -6 -32 -4 3 -8 12 -8 20 0 12 -2 12 -14 2
-10 -9 -11 -15 -2 -20 8 -6 8 -8 -1 -8 -6 0 -20 -3 -30 -6 -15 -5 -15 -4 -3 5
9 7 10 11 3 11 -28 0 -21 -20 14 -41 21 -12 59 -40 86 -62 53 -44 60 -34 23
34 -13 24 -27 59 -31 78 -5 23 -10 29 -15 21 -6 -9 -10 -6 -13 11 -3 14 -5 9
-3 -13z"/>
<path d="M5493 2813 c-13 -2 -23 -8 -23 -13 0 -6 -11 -5 -26 0 -19 7 -23 7
-18 -2 5 -7 2 -9 -9 -5 -9 3 -18 1 -21 -6 -3 -8 -5 -7 -6 3 -1 13 -59 -163
-60 -183 0 -15 76 32 111 70 43 45 73 99 63 115 -4 7 -3 8 4 4 7 -4 12 -1 12
8 0 9 -1 15 -2 15 -2 -1 -13 -4 -25 -6z"/>
<path d="M4843 2731 c-52 -51 -94 -81 -157 -111 -92 -45 -140 -89 -180 -167
-25 -51 -60 -162 -71 -226 l-6 -38 83 -38 c174 -81 153 -78 408 -42 124 17
292 45 373 61 82 17 151 30 153 30 12 0 2 154 -13 200 -18 55 -31 71 -123 143
-30 23 -78 74 -107 111 -28 38 -74 84 -101 104 -43 29 -61 35 -119 39 l-68 4
-72 -70z"/>
<path d="M5320 2773 c0 -17 -32 -25 -42 -11 -4 8 -8 -10 -8 -43 0 -31 3 -59 7
-63 4 -3 17 22 29 56 13 34 21 64 19 67 -3 2 -5 0 -5 -6z"/>
<path d="M2510 2744 c22 -24 23 -26 5 -21 l-20 7 20 -16 c19 -15 18 -15 -20
-9 l-40 6 34 -16 c18 -8 46 -15 62 -15 16 0 53 -8 82 -19 28 -10 61 -22 72
-26 11 -4 -5 8 -35 26 -30 17 -84 50 -120 71 -59 36 -63 37 -40 12z"/>
<path d="M2428 2693 c7 -3 16 -2 19 1 4 3 -2 6 -13 5 -11 0 -14 -3 -6 -6z"/>
<path d="M2666 2555 c-3 -8 -1 -15 4 -15 6 0 10 7 10 15 0 8 -2 15 -4 15 -2 0
-6 -7 -10 -15z"/>
<path d="M2606 2521 c-4 -5 3 -7 14 -4 23 6 26 13 6 13 -8 0 -17 -4 -20 -9z"/>
<path d="M2565 2382 c4 -7 8 -23 10 -35 6 -52 18 -97 24 -93 3 2 7 -15 7 -38
1 -22 9 -57 19 -76 15 -33 16 -15 0 23 -4 10 -3 17 4 17 6 0 11 -7 11 -15 0
-8 4 -15 9 -15 5 0 4 13 -2 30 -8 21 -14 26 -20 17 -5 -7 -6 0 -2 18 4 17 8
35 8 42 0 7 4 10 9 7 5 -4 7 -13 4 -21 -3 -8 -1 -11 4 -8 6 3 10 13 10 21 0
18 15 18 33 -1 8 -8 17 -11 21 -8 5 6 8 -5 5 -23 0 -4 5 -11 13 -15 11 -7 10
-11 -2 -19 -18 -12 -3 -12 25 0 11 5 14 9 8 9 -7 1 -13 6 -13 11 0 13 42 -7
53 -26 4 -7 15 -10 23 -7 11 4 0 14 -37 34 -28 16 -67 40 -85 54 -20 15 -40
23 -51 19 -12 -4 -14 -3 -6 3 9 7 -1 23 -39 59 -28 27 -48 43 -43 36z m36 -49
c13 -16 12 -17 -3 -4 -10 7 -18 15 -18 17 0 8 8 3 21 -13z"/>
<path d="M2883 2145 c0 -7 6 -11 14 -8 7 3 13 6 13 8 0 2 -6 5 -13 8 -8 3 -14
-1 -14 -8z"/>
<path d="M4320 2113 c8 -3 26 -10 40 -15 20 -7 22 -11 10 -18 -8 -6 -22 -9
-30 -9 -10 0 -8 3 4 8 19 7 19 8 -2 13 -12 4 -22 2 -22 -4 0 -5 -4 -6 -10 -3
-5 3 -10 -1 -10 -9 0 -11 10 -16 33 -17 31 -1 31 -1 7 -10 -22 -7 -20 -8 10
-5 19 2 46 7 60 10 21 5 22 5 5 -3 -15 -8 -9 -9 27 -8 34 1 48 6 48 16 0 8 -3
12 -6 8 -4 -3 -13 1 -21 9 -9 8 -22 13 -30 10 -8 -3 -11 -1 -8 4 6 10 -12 15
-80 24 -22 3 -33 3 -25 -1z"/>
<path d="M4238 2053 c6 -2 18 -2 25 0 6 3 1 5 -13 5 -14 0 -19 -2 -12 -5z"/>
</g>
</svg>
